<svg width="62" height="69" viewBox="0 0 62 69" fill="none" xmlns="http://www.w3.org/2000/svg">
<path d="M44.8823 35.2743C42.3596 34.3006 40.0581 33.3712 38.8631 32.2205C42.7579 31.1583 45.6347 27.6176 45.6347 23.7228V14.2956C45.6347 6.72735 39.0401 0.0885178 31.5161 0H31.4719C31.4719 0 31.5161 0 31.4719 0C23.8593 0 17.309 6.77161 17.309 14.4727V23.6785C17.309 27.5733 19.7875 31.0255 23.6381 32.132C22.4873 33.2827 19.9646 34.2564 17.4418 35.2301C10.98 37.7528 2.08396 41.205 0.888973 52.8451C0.667678 55.0138 1.95119 57.094 3.9871 57.9349L27.8869 67.7161C28.9491 68.1587 30.0556 68.38 31.1621 68.38C32.2685 68.38 33.375 68.1587 34.4372 67.7161L58.2928 57.9349C60.3287 57.094 61.6122 55.0138 61.3909 52.8451C60.2844 41.2493 51.3884 37.7971 44.8823 35.2743ZM57.0535 54.7483L33.198 64.5295C31.9145 65.0606 30.5424 65.0606 29.2589 64.5295L5.35912 54.7483C4.7395 54.4827 4.34117 53.8631 4.38543 53.1992C5.35912 43.6835 12.4405 40.8952 18.6811 38.461C21.8677 37.2217 24.6117 36.1595 26.2936 34.2564C27.046 33.3712 27.3115 32.1762 27.0017 31.0697C26.6477 29.919 25.7625 29.0781 24.6117 28.7683C22.2218 28.1487 20.4957 25.98 20.4957 23.6343V14.4727C20.4957 8.63049 25.5412 3.49645 31.2506 3.49645H31.2948H31.4276C37.0042 3.54071 42.1383 8.67475 42.1383 14.2956V23.7228C42.1383 26.0685 40.2794 28.2372 37.8452 28.9011C36.6944 29.2109 35.7207 30.0961 35.3667 31.2468C35.0126 32.3975 35.2781 33.5925 36.0748 34.4334C37.7566 36.248 40.4564 37.3102 43.5988 38.5495C49.8836 40.9837 57.0093 43.7721 57.9387 53.2877C58.0715 53.8631 57.6731 54.527 57.0535 54.7483Z" fill="#DB781D"/>
</svg>
