<svg width="188" height="33" viewBox="0 0 188 33" fill="none" xmlns="http://www.w3.org/2000/svg">
<path d="M50.9108 27.443C49.242 27.443 47.7091 27.2081 46.3123 26.7384C44.9154 26.2686 43.8028 25.7062 42.9746 25.051L44.1242 21.7504C44.903 22.3561 45.8858 22.8568 47.0725 23.2524C48.2592 23.6356 49.4027 23.8272 50.5029 23.8272C51.5289 23.8272 52.3015 23.6541 52.8207 23.308C53.3523 22.9619 53.618 22.3994 53.618 21.6206V21.2869C53.618 20.8913 53.4635 20.5575 53.1545 20.2856C52.8454 20.0012 52.1346 19.6798 51.0221 19.3213L48.3149 18.4498C47.6226 18.2273 47.0478 18.0234 46.5904 17.8379C46.133 17.6402 45.6633 17.3929 45.1812 17.0962C44.7114 16.7996 44.3406 16.4782 44.0686 16.132C43.809 15.7735 43.5927 15.3409 43.4196 14.834C43.2589 14.3149 43.1786 13.7215 43.1786 13.054C43.1786 12.0897 43.364 11.243 43.7349 10.5136C44.1181 9.78429 44.6434 9.20947 45.311 8.78917C45.9785 8.36888 46.7202 8.05983 47.5361 7.86205C48.352 7.6519 49.2482 7.54682 50.2248 7.54682C51.4362 7.54682 52.6476 7.70134 53.8591 8.01039C55.0705 8.31943 56.1336 8.77681 57.0484 9.38253L55.8617 12.5348C55.12 12.1392 54.2485 11.8054 53.2472 11.5335C52.2583 11.2615 51.362 11.1255 50.5585 11.1255C49.5078 11.1255 48.7475 11.2553 48.2778 11.5149C47.808 11.7745 47.5732 12.201 47.5732 12.7944C47.5732 13.1899 47.6473 13.499 47.7957 13.7215C47.944 13.944 48.2531 14.1727 48.7228 14.4076C49.1925 14.6424 49.9466 14.9329 50.985 15.2791L53.4512 16.1135C54.4401 16.4473 55.2312 16.8119 55.8246 17.2075C56.4303 17.6031 56.9124 18.1655 57.2709 18.8949C57.6418 19.6242 57.8272 20.539 57.8272 21.6392C57.8272 22.4798 57.685 23.24 57.4007 23.9199C57.1288 24.5998 56.7641 25.1561 56.3067 25.5887C55.8617 26.0214 55.3301 26.3799 54.7121 26.6642C54.1063 26.9485 53.4882 27.1463 52.8578 27.2576C52.2273 27.3812 51.5784 27.443 50.9108 27.443Z" fill="white"/>
<path d="M67.5264 27.443C65.2272 27.443 63.4347 26.7878 62.1491 25.4775C60.8635 24.1548 60.2207 22.3438 60.2207 20.0445V7.99184H64.7821V19.9703C64.7821 21.2312 65.1097 22.1769 65.7649 22.8073C66.4201 23.4254 67.3225 23.7345 68.4721 23.7345C69.8443 23.7345 70.8579 23.3945 71.5131 22.7146C72.1806 22.0224 72.5144 20.916 72.5144 19.3955V7.99184H77.1129V21.8988L77.3355 27.0165H72.5886L72.5144 24.198C72.4526 24.47 72.3104 24.7729 72.0879 25.1066C71.8778 25.428 71.5811 25.7742 71.1979 26.145C70.827 26.5159 70.314 26.8249 69.6588 27.0721C69.016 27.3194 68.3052 27.443 67.5264 27.443Z" fill="white"/>
<path d="M81.2123 27.0165V15.242C81.2123 13.8946 81.1814 12.6213 81.1196 11.4222C81.0578 10.2108 80.996 9.33927 80.9342 8.80772L80.8415 7.99184H85.7182V10.5322C86.3733 9.54324 87.2449 8.79535 88.3327 8.28852C89.4329 7.76933 90.496 7.50974 91.522 7.50974C92.6222 7.50974 93.5864 7.65808 94.4146 7.95476C95.2429 8.23908 95.9722 8.70882 96.6027 9.36399C97.2455 10.0068 97.7338 10.8968 98.0675 12.0341C98.4013 13.1714 98.5682 14.5497 98.5682 16.1691V27.0165H93.9696V15.8539C93.9696 14.1727 93.7038 12.986 93.1723 12.2937C92.6531 11.5891 91.7878 11.2368 90.5763 11.2368C90.1313 11.2368 89.643 11.3357 89.1115 11.5335C88.5799 11.7313 88.0607 12.0094 87.5539 12.3679C87.0594 12.714 86.6453 13.1776 86.3115 13.7586C85.9778 14.3272 85.8109 14.9515 85.8109 15.6314V27.0165H81.2123Z" fill="white"/>
<path d="M107.785 27.0165L99.7749 7.99184H104.893C108.181 16.8305 109.905 21.4599 110.066 21.8802C111.043 19.2225 112.705 14.593 115.054 7.99184H120.042L111.957 27.0165H107.785Z" fill="white"/>
<path d="M121.453 4.06082V0.0185426H125.903V4.06082H121.453ZM121.471 27.0165V7.99184H125.903V27.0165H121.471Z" fill="white"/>
<path d="M139.218 23.7345C140.071 23.7345 140.819 23.5676 141.462 23.2338C142.117 22.8877 142.63 22.418 143.001 21.8246C143.384 21.2312 143.668 20.5761 143.854 19.8591C144.051 19.1421 144.15 18.3695 144.15 17.5413C144.15 15.7117 143.742 14.2036 142.926 13.0169C142.111 11.8302 140.924 11.2368 139.366 11.2368C137.747 11.2368 136.461 11.8363 135.509 13.0354C134.558 14.2221 134.082 15.6994 134.082 17.4671C134.082 18.592 134.261 19.618 134.619 20.5452C134.99 21.4599 135.571 22.2202 136.362 22.8259C137.154 23.4316 138.105 23.7345 139.218 23.7345ZM140.071 27.443C138.798 27.443 137.636 27.171 136.585 26.6271C135.547 26.0708 134.799 25.4157 134.341 24.6616V27.0165H129.631C129.656 26.1759 129.681 25.428 129.706 24.7729C129.73 24.1177 129.749 23.6541 129.761 23.3822C129.774 23.0978 129.78 22.8568 129.78 22.659C129.792 22.4489 129.798 22.3067 129.798 22.2325C129.798 22.1584 129.798 22.0718 129.798 21.9729V0H134.36V10.662C134.422 10.4395 134.576 10.1675 134.823 9.8461C135.071 9.52469 135.417 9.18475 135.862 8.82626C136.319 8.45541 136.937 8.14636 137.716 7.89913C138.507 7.63953 139.372 7.50974 140.312 7.50974C142.982 7.50974 145.09 8.43068 146.635 10.2726C148.18 12.1145 148.953 14.4941 148.953 17.4115C148.953 18.8701 148.712 20.2299 148.23 21.4908C147.76 22.7517 147.123 23.8148 146.32 24.6801C145.516 25.5455 144.571 26.2254 143.483 26.7198C142.407 27.2019 141.27 27.443 140.071 27.443Z" fill="white"/>
<path d="M156.371 15.2234H165.828C165.605 13.876 165.105 12.8438 164.326 12.1268C163.547 11.4099 162.595 11.0514 161.47 11.0514C160.148 11.0514 159.041 11.4222 158.151 12.1639C157.261 12.9056 156.668 13.9255 156.371 15.2234ZM161.804 27.443C158.603 27.443 156.075 26.5282 154.22 24.6987C152.378 22.8692 151.458 20.4772 151.458 17.5227C151.458 16.1877 151.68 14.9206 152.125 13.7215C152.57 12.5224 153.194 11.4593 153.998 10.5322C154.814 9.60505 155.84 8.86952 157.076 8.32561C158.324 7.78169 159.703 7.50974 161.211 7.50974C162.719 7.50974 164.036 7.76933 165.16 8.28852C166.285 8.80772 167.175 9.53706 167.831 10.4765C168.486 11.4037 168.968 12.4482 169.277 13.6102C169.598 14.7722 169.759 16.0579 169.759 17.4671C169.759 17.8256 169.728 18.0975 169.666 18.283H156.316C156.39 20.1372 156.952 21.5094 158.003 22.3994C159.066 23.2895 160.475 23.7345 162.231 23.7345C164.283 23.7345 166.285 23.0546 168.239 21.6948L169.481 25.0325C168.282 25.8607 167.07 26.4726 165.847 26.8682C164.635 27.2514 163.288 27.443 161.804 27.443Z" fill="white"/>
<path d="M180.2 27.443C178.531 27.443 176.998 27.2081 175.601 26.7384C174.205 26.2686 173.092 25.7062 172.264 25.051L173.413 21.7504C174.192 22.3561 175.175 22.8568 176.362 23.2524C177.548 23.6356 178.692 23.8272 179.792 23.8272C180.818 23.8272 181.591 23.6541 182.11 23.308C182.641 22.9619 182.907 22.3994 182.907 21.6206V21.2869C182.907 20.8913 182.753 20.5575 182.444 20.2856C182.135 20.0012 181.424 19.6798 180.311 19.3213L177.604 18.4498C176.912 18.2273 176.337 18.0234 175.88 17.8379C175.422 17.6402 174.952 17.3929 174.47 17.0962C174.001 16.7996 173.63 16.4782 173.358 16.132C173.098 15.7735 172.882 15.3409 172.709 14.834C172.548 14.3149 172.468 13.7215 172.468 13.054C172.468 12.0897 172.653 11.243 173.024 10.5136C173.407 9.78429 173.933 9.20947 174.6 8.78917C175.268 8.36888 176.009 8.05983 176.825 7.86205C177.641 7.6519 178.537 7.54682 179.514 7.54682C180.725 7.54682 181.937 7.70134 183.148 8.01039C184.36 8.31943 185.423 8.77681 186.338 9.38253L185.151 12.5348C184.409 12.1392 183.538 11.8054 182.536 11.5335C181.547 11.2615 180.651 11.1255 179.848 11.1255C178.797 11.1255 178.037 11.2553 177.567 11.5149C177.097 11.7745 176.862 12.201 176.862 12.7944C176.862 13.1899 176.936 13.499 177.085 13.7215C177.233 13.944 177.542 14.1727 178.012 14.4076C178.482 14.6424 179.236 14.9329 180.274 15.2791L182.74 16.1135C183.729 16.4473 184.52 16.8119 185.114 17.2075C185.719 17.6031 186.202 18.1655 186.56 18.8949C186.931 19.6242 187.116 20.539 187.116 21.6392C187.116 22.4798 186.974 23.24 186.69 23.9199C186.418 24.5998 186.053 25.1561 185.596 25.5887C185.151 26.0214 184.619 26.3799 184.001 26.6642C183.395 26.9485 182.777 27.1463 182.147 27.2576C181.516 27.3812 180.867 27.443 180.2 27.443Z" fill="white"/>
<path d="M35.4746 25.194H22.8868C22.5824 25.194 22.2918 25.3153 22.0766 25.5281L18.3095 29.2976L14.5423 25.5304C14.3271 25.3153 14.0365 25.194 13.7321 25.194H1.14434C0.512665 25.194 0 25.7066 0 26.3383C0 26.97 0.512665 27.4827 1.14434 27.4827H13.2583L17.5015 31.7259C17.7235 31.9479 18.0165 32.06 18.3095 32.06C18.6024 32.06 18.8954 31.9479 19.1196 31.7259L23.3606 27.4827H35.4746C36.1062 27.4827 36.6189 26.97 36.6189 26.3383C36.6189 25.7066 36.1062 25.194 35.4746 25.194Z" fill="#DB781D"/>
<path d="M7.83072 22.9053H13.7332C14.6487 22.9053 15.5115 23.2623 16.1615 23.91L18.3106 26.0614L20.4597 23.9123C21.1097 23.2623 21.9725 22.9053 22.888 22.9053H28.7905C29.4016 21.5 29.754 19.9552 29.754 18.3279C29.754 12.0112 24.6274 6.88452 18.3106 6.88452C11.9938 6.88452 6.86719 12.0112 6.86719 18.3279C6.86719 19.9552 7.21964 21.5 7.83072 22.9053Z" fill="#DB781D"/>
<path d="M18.3113 4.59586C18.943 4.59586 19.4557 4.08319 19.4557 3.45152V1.16283C19.4557 0.531158 18.943 0.0184937 18.3113 0.0184937C17.6797 0.0184937 17.167 0.531158 17.167 1.16283V3.45152C17.167 4.08319 17.6797 4.59586 18.3113 4.59586Z" fill="#DB781D"/>
<path d="M1.14434 19.4725H3.43302C4.0647 19.4725 4.57736 18.9598 4.57736 18.3281C4.57736 17.6964 4.0647 17.1838 3.43302 17.1838H1.14434C0.512665 17.1838 0 17.6964 0 18.3281C0 18.9598 0.512665 19.4725 1.14434 19.4725Z" fill="#DB781D"/>
<path d="M33.1883 19.4725H35.477C36.1086 19.4725 36.6213 18.9598 36.6213 18.3281C36.6213 17.6964 36.1086 17.1838 35.477 17.1838H33.1883C32.5566 17.1838 32.0439 17.6964 32.0439 18.3281C32.0439 18.9598 32.5566 19.4725 33.1883 19.4725Z" fill="#DB781D"/>
<path d="M6.98114 8.61709C7.20543 8.84138 7.49838 8.95124 7.79133 8.95124C8.08428 8.95124 8.37723 8.84138 8.59924 8.61709C9.04553 8.1708 9.04553 7.44528 8.59924 6.99899L6.98114 5.38318C6.53485 4.93689 5.80933 4.93689 5.36304 5.38318C4.91675 5.82947 4.91675 6.55499 5.36304 7.00128L6.98114 8.61709Z" fill="#DB781D"/>
<path d="M28.8353 8.95352C29.1283 8.95352 29.4212 8.84138 29.6455 8.61938L31.2613 7.00128C31.7076 6.55499 31.7076 5.82947 31.2613 5.38318C30.8151 4.93689 30.0895 4.93689 29.6432 5.38318L28.0251 6.99899C27.5789 7.44528 27.5789 8.1708 28.0251 8.61709C28.2494 8.84138 28.5424 8.95352 28.8353 8.95352Z" fill="#DB781D"/>
</svg>
