<svg width="80" height="80" viewBox="0 0 80 80" fill="none" xmlns="http://www.w3.org/2000/svg">
<path d="M21.869 54.4295L11.7508 50.24L12.0222 44.9364C11.1165 44.1594 10.271 43.3139 9.49495 42.4092L4.19044 42.6796L0 32.5614L3.93948 29.0034C3.89133 28.395 3.86725 27.8042 3.86725 27.2152C3.86725 26.6272 3.89133 26.0354 3.93948 25.426L0 21.869L4.19044 11.7518L9.49495 12.0213C10.2719 11.1156 11.1183 10.2701 12.0222 9.49402L11.7508 4.18952L21.869 0L25.426 3.93856C26.6383 3.84225 27.7921 3.84225 29.0044 3.93856L32.5614 0L42.6814 4.18952L42.4092 9.49495C43.3158 10.2747 44.1613 11.1193 44.9355 12.0213L50.2381 11.7518L54.4304 21.8681L50.4909 25.4251C50.54 26.0373 50.5641 26.629 50.5641 27.2143C50.5641 27.7996 50.5409 28.3913 50.4919 29.0025L54.4304 32.5605L50.2372 42.6786L44.9345 42.4082C44.1613 43.3084 43.3167 44.1539 42.4082 44.9345L42.6805 50.239L32.5605 54.4295L29.0034 50.4909C27.7847 50.5872 26.6457 50.5872 25.4251 50.4909L21.869 54.4295ZM30.4861 46.6052L33.5588 50.0066L38.8484 47.8165L38.6141 43.2389L39.3633 42.6462C40.5885 41.6766 41.6915 40.5728 42.6435 39.3652L43.2361 38.6123L47.8164 38.8457L50.0084 33.5578L46.6061 30.4851L46.7172 29.5359C46.8135 28.7154 46.8598 27.9561 46.8598 27.2152C46.8598 26.4744 46.8126 25.7141 46.7172 24.8936L46.6061 23.9443L50.0084 20.8726L47.8164 15.5848L43.2361 15.8163L42.6425 15.0643C41.6896 13.8549 40.5857 12.751 39.3624 11.7833L38.6132 11.1906L38.8475 6.61211L33.5578 4.42289L30.4842 7.82618L29.5341 7.71412C27.9199 7.52335 26.5068 7.52335 24.8945 7.71412L23.9443 7.82618L20.8707 4.42289L15.5829 6.61211L15.8172 11.1924L15.0652 11.7851C13.8493 12.7445 12.7454 13.8484 11.7842 15.0662L11.1915 15.8172L6.61118 15.5848L4.42103 20.8726L7.82432 23.9453L7.71227 24.8954C7.61596 25.7094 7.56966 26.4688 7.56966 27.2161C7.56966 27.9644 7.61596 28.7228 7.71227 29.5359L7.82432 30.4861L4.42103 33.5597L6.61118 38.8466L11.1915 38.6132L11.7842 39.3643C12.7436 40.5802 13.8484 41.6841 15.0652 42.6444L15.8172 43.2371L15.5829 47.8174L20.8707 50.0066L23.9425 46.6052L24.8917 46.7163C26.5216 46.9071 27.9033 46.9071 29.535 46.7163L30.4861 46.6052ZM65.9192 80H57.0428L55.7528 76.3828C55.4954 76.2837 55.2389 76.1772 54.987 76.0651L51.5207 77.7145L45.2438 71.4376L46.8922 67.976C46.8339 67.8463 46.7765 67.7157 46.7218 67.5842C46.6681 67.4583 46.6172 67.3305 46.569 67.2018L42.9583 65.9183V57.0401L46.5746 55.7556C46.6746 55.4954 46.7811 55.2389 46.8932 54.986L45.2438 51.5179L51.5207 45.2429L54.9823 46.8885C55.1092 46.8302 55.2379 46.7746 55.3685 46.72C55.4982 46.6672 55.626 46.6172 55.7547 46.569L57.0428 42.9574H65.9192L67.2064 46.5755C67.4639 46.6746 67.7204 46.7811 67.9732 46.8932L71.4404 45.2429L77.7145 51.5207L76.0679 54.9833C76.1263 55.1101 76.1818 55.2379 76.2355 55.3676C76.292 55.4982 76.343 55.6287 76.3911 55.7575L80.0009 57.0391V65.9173L76.3846 67.2009C76.2855 67.4611 76.179 67.7176 76.067 67.9695L77.7145 71.4376L71.4385 77.7154L67.9787 76.0689C67.8519 76.1263 67.725 76.1828 67.5954 76.2365C67.4638 76.2893 67.3342 76.3393 67.2055 76.3874L65.9192 80ZM59.6543 76.2957H63.3049L64.3199 73.4444L65.1885 73.1629C65.521 73.0554 65.8553 72.9443 66.1877 72.8091C66.4989 72.6795 66.8082 72.5239 67.1138 72.3655L67.9306 71.9423L70.668 73.2453L73.2471 70.6662L71.946 67.9278L72.3711 67.111C72.6841 66.5082 72.9526 65.8608 73.1666 65.1885L73.4462 64.3134L76.2967 63.3021V59.6543L73.4323 58.6366L73.1564 57.7513C73.0573 57.4309 72.9508 57.1114 72.8184 56.7965C72.6776 56.4566 72.5211 56.1455 72.3627 55.8343L71.9479 55.0212L73.2471 52.2884L70.6699 49.7103L67.9389 51.0105L67.1231 50.59C66.5017 50.2696 65.8534 50.001 65.195 49.7908L64.3208 49.5121L63.3058 46.6617H59.6553L58.6384 49.513L57.7707 49.7936C57.441 49.9001 57.1077 50.0112 56.7798 50.1455C56.4585 50.2789 56.152 50.4326 55.8473 50.59L55.0305 51.0132L52.2912 49.7112L49.713 52.2893L51.016 55.0296L50.5882 55.8482C50.2752 56.4474 50.0075 57.0938 49.7927 57.7679L49.513 58.6431L46.6626 59.6553V63.3021L49.5223 64.318L49.8001 65.1968C49.901 65.5173 50.0057 65.8368 50.1399 66.1525C50.2826 66.5007 50.4363 66.8082 50.5946 67.1129L51.016 67.9297L49.713 70.6671L52.2912 73.2453L55.0231 71.9442L55.8399 72.3664C56.4585 72.6859 57.1058 72.9545 57.7661 73.1656L58.6384 73.4444L59.6543 76.2957ZM27.2152 38.3271C21.0874 38.3271 16.1024 33.3421 16.1024 27.2143C16.1024 21.0865 21.0874 16.1015 27.2152 16.1015C33.343 16.1015 38.328 21.0865 38.328 27.2143C38.328 33.3421 33.3421 38.3271 27.2152 38.3271ZM27.2152 19.8058C23.1303 19.8058 19.8067 23.1294 19.8067 27.2143C19.8067 31.2992 23.1303 34.6228 27.2152 34.6228C31.3001 34.6228 34.6237 31.2992 34.6237 27.2143C34.6237 23.1294 31.3001 19.8058 27.2152 19.8058ZM61.4796 68.8872C57.3947 68.8872 54.0711 65.5636 54.0711 61.4787C54.0711 57.3938 57.3947 54.0702 61.4796 54.0702C65.5645 54.0702 68.8881 57.3938 68.8881 61.4787C68.8881 65.5636 65.5645 68.8872 61.4796 68.8872ZM61.4796 57.7744C59.4367 57.7744 57.7754 59.4358 57.7754 61.4787C57.7754 63.5216 59.4367 65.183 61.4796 65.183C63.5225 65.183 65.1839 63.5216 65.1839 61.4787C65.1839 59.4358 63.5225 57.7744 61.4796 57.7744Z" fill="#DB781D"/>
</svg>
