<svg width="91" height="69" viewBox="0 0 91 69" fill="none" xmlns="http://www.w3.org/2000/svg">
<path d="M58.8823 35.2743C56.3596 34.3006 54.0581 33.3712 52.8631 32.2205C56.7579 31.1583 59.6347 27.6176 59.6347 23.7228V14.2956C59.6347 6.72735 53.0401 0.0885178 45.5161 0H45.4719C45.4719 0 45.5161 0 45.4719 0C37.8593 0 31.309 6.77161 31.309 14.4727V23.6785C31.309 27.5733 33.7875 31.0255 37.6381 32.132C36.4873 33.2827 33.9646 34.2564 31.4418 35.2301C24.98 37.7528 16.084 41.205 14.889 52.8451C14.6677 55.0138 15.9512 57.094 17.9871 57.9349L41.8869 67.7161C42.9491 68.1587 44.0556 68.38 45.1621 68.38C46.2685 68.38 47.375 68.1587 48.4372 67.7161L72.2928 57.9349C74.3287 57.094 75.6122 55.0138 75.3909 52.8451C74.2844 41.2493 65.3884 37.7971 58.8823 35.2743ZM71.0535 54.7483L47.198 64.5295C45.9145 65.0606 44.5424 65.0606 43.2589 64.5295L19.3591 54.7483C18.7395 54.4827 18.3412 53.8631 18.3854 53.1992C19.3591 43.6835 26.4405 40.8952 32.6811 38.461C35.8677 37.2217 38.6117 36.1595 40.2936 34.2564C41.046 33.3712 41.3115 32.1762 41.0017 31.0697C40.6477 29.919 39.7625 29.0781 38.6117 28.7683C36.2218 28.1487 34.4957 25.98 34.4957 23.6343V14.4727C34.4957 8.63049 39.5412 3.49645 45.2506 3.49645H45.2948H45.4276C51.0042 3.54071 56.1383 8.67475 56.1383 14.2956V23.7228C56.1383 26.0685 54.2794 28.2372 51.8452 28.9011C50.6944 29.2109 49.7207 30.0961 49.3667 31.2468C49.0126 32.3975 49.2781 33.5925 50.0748 34.4334C51.7566 36.248 54.4564 37.3102 57.5988 38.5495C63.8836 40.9837 71.0093 43.7721 71.9387 53.2877C72.0715 53.8631 71.6731 54.527 71.0535 54.7483Z" fill="#DB781D"/>
<path d="M11.7471 51.7831L4.09033 48.508C3.692 48.3309 3.42644 47.9326 3.4707 47.5343C4.26736 39.7005 10.1538 37.399 15.3321 35.4073C18.0761 34.3451 20.4219 33.4157 21.8381 31.7781C22.5905 30.9372 22.8561 29.7865 22.502 28.7243C22.1922 27.7063 21.4841 26.9539 20.4661 26.6883C18.6515 26.2015 17.545 24.6082 17.545 22.6608V14.8712C17.545 10.1355 21.4398 6.01944 25.9542 5.93092C25.9542 5.93092 25.9542 5.93092 25.9985 5.93092C27.0607 5.93092 27.9016 6.15221 29.0523 6.68332C29.9375 7.08165 30.9997 6.68332 31.3981 5.79814C31.7964 4.91296 31.3981 3.85075 30.5129 3.45242C28.8753 2.70002 27.5033 2.39021 25.9542 2.39021C25.8657 2.39021 25.7329 2.39021 25.6444 2.39021V2.34595L25.7329 2.39021C19.3596 2.56724 14.0928 8.23238 14.0928 14.8712V22.6165C14.0928 25.8474 15.996 28.7243 18.8728 29.8307C17.8548 30.6274 15.996 31.3355 14.1371 32.0437C8.60473 34.2124 0.992203 37.1334 0.0185073 47.136C-0.158528 49.0834 0.947945 50.9865 2.76256 51.7389L10.3751 55.014C10.5964 55.1026 10.8177 55.1468 11.0832 55.1468C11.7914 55.1468 12.411 54.7485 12.7208 54.0846C13.0749 53.1994 12.6766 52.1372 11.7471 51.7831Z" fill="#DB781D"/>
<path d="M90.5717 47.1356C89.5538 37.1774 81.9855 34.212 76.4531 32.0434C74.5942 31.3352 72.8681 30.6271 71.8502 29.8304C74.8155 28.7239 76.8957 25.8471 76.8957 22.6162V14.8709C76.8957 8.09929 71.2306 2.38989 64.636 2.38989C63.0427 2.38989 61.5379 2.74396 59.9446 3.45211C59.0594 3.85044 58.6168 4.91265 59.0594 5.79783C59.4577 6.683 60.5199 7.08133 61.4051 6.683C62.5116 6.19616 63.5738 5.9306 64.636 5.9306C69.2389 5.9306 73.355 10.0909 73.355 14.8709V22.6162C73.355 24.5193 71.983 26.1569 70.1684 26.6438C69.1504 26.9093 68.3095 27.706 67.9997 28.7239C67.6899 29.7862 67.9112 30.8926 68.6636 31.7335C70.1241 33.3711 72.4698 34.3006 75.1696 35.3628C80.3479 37.3987 86.2343 39.7001 87.031 47.4897C87.0753 47.888 86.8097 48.2864 86.3671 48.4634L78.7546 51.7386C77.8694 52.1369 77.4268 53.1549 77.8251 54.0843C78.135 54.7482 78.7546 55.1465 79.4627 55.1465C79.684 55.1465 79.9496 55.1022 80.1709 55.0137L87.7834 51.7386C89.6423 51.0304 90.793 49.1273 90.5717 47.1356Z" fill="#DB781D"/>
</svg>
