<svg width="65" height="80" viewBox="0 0 65 80" fill="none" xmlns="http://www.w3.org/2000/svg">
<path d="M64.581 22.6771C64.5295 21.8265 63.9146 21.1162 63.0809 20.9439C51.679 18.5915 52.6985 8.03514 52.7458 7.59423C52.8328 6.85347 52.4746 6.1313 51.8319 5.75205C45.3644 1.93678 40.5668 0 32.2918 0C24.0168 0 19.2192 1.93678 12.7517 5.75205C12.1089 6.13046 11.7508 6.85347 11.8378 7.59423C11.8902 8.04105 12.9831 18.5755 1.50351 20.9447C0.606498 21.1306 -0.0269886 21.9321 0.000884814 22.8477C0.0490298 24.4196 1.50098 61.5596 31.3111 79.7246C31.3306 79.7373 31.3534 79.7407 31.3728 79.7517C31.4826 79.8133 31.5992 79.8632 31.7208 79.9029C31.7588 79.9147 31.7951 79.9274 31.8331 79.9375C31.981 79.9747 32.1321 80 32.2918 80C32.4396 80 32.5823 79.9789 32.72 79.9468C32.758 79.9383 32.7943 79.924 32.8315 79.9122C32.9371 79.8809 33.0376 79.842 33.1331 79.7931C33.1525 79.7829 33.1753 79.7795 33.1947 79.7694C66.5195 61.563 64.6038 23.064 64.581 22.6771ZM3.87191 24.2422C13.4511 21.5022 15.7764 13.3978 15.6666 8.41692C20.6432 5.5637 24.4931 4.06867 30.4074 3.81359V74.6213C8.19989 59.0409 4.45725 31.0332 3.87191 24.2422ZM34.177 74.8181V3.81359C40.0913 4.06867 43.942 5.5637 48.9178 8.41692C48.808 13.4198 51.1536 21.574 60.8409 24.2786C60.8198 30.8423 59.2116 59.2335 34.177 74.8181Z" fill="#DB781D"/>
</svg>
